# xmcd CD database file
#
# Track frame offsets:
#	150
#	11177
#	25130
#	43790
#	61067
#	79612
#	96197
#	113560
#	133687
#	150872
#	173135
#
# Disc length: 2608 seconds
#
# Revision: 1
# Processed by: cddbd v1.5PL3 Copyright (c) Steve Scherf et al.
# Submitted via: CDex 1.50
#
DISCID=7b0a2e0b
DTITLE=TUBE - Twilight Swim
DYEAR=1987
DGENRE=JPop
TTITLE0=Twilight Swim
TTITLE1=シンガポール スリング
TTITLE2=Don't Make Me Blue
TTITLE3=Smile On Me
TTITLE4=ダンス・ウィズ・ユー
TTITLE5=Close Your Eyes, Hold Your Dreams
TTITLE6=Have Some Fun Tonite
TTITLE7=Place In The Sunshine
TTITLE8=大東亜パラダイス
TTITLE9=Too Late
TTITLE10=Meet you at RAFFLES
EXTD=YEAR: 1987
EXTT0=
EXTT1=
EXTT2=
EXTT3=
EXTT4=
EXTT5=
EXTT6=
EXTT7=
EXTT8=
EXTT9=
EXTT10=
PLAYORDER=
